<?xml version="1.0" encoding="UTF-8"?>
<svg id="Layer_1" xmlns="http://www.w3.org/2000/svg" xmlns:xlink="http://www.w3.org/1999/xlink" version="1.1" viewBox="0 0 80 41.3">
  <!-- Generator: Adobe Illustrator 29.2.1, SVG Export Plug-In . SVG Version: 2.1.0 Build 116)  -->
  <path d="M75.5,0H8.7c-2.5,0-4.5,2-4.5,4.5v2.5H.9c-.5,0-.9.4-.9.9v5.7c0,.5.4.9.9.9h3.3v4.3H.9c-.5,0-.9.4-.9.9v10.3c0,.5.4.9.9.9h3.3v1.8c0,2.5,2,4.5,4.5,4.5h2v3.3c0,.5.4.9.9.9h18.6c.5,0,.9-.4.9-.9v-3.3h4.9v3.3c0,.5.4.9.9.9h10.8c.5,0,.9-.4.9-.9v-3.3h27.2c2.5,0,4.5-2,4.5-4.5V4.5c0-2.5-2-4.5-4.5-4.5ZM4.2,29.1H1.7v-8.5h2.4v8.5ZM4.2,12.8H1.7v-4h2.4v4ZM29.2,39.6H12.4v-2.4h16.8v2.4h0ZM46.6,39.6h-9v-2.4h9v2.4ZM78.3,32.7c0,1.5-1.2,2.8-2.8,2.8H8.7c-1.5,0-2.8-1.2-2.8-2.8V4.5c0-1.5,1.2-2.8,2.8-2.8h66.8c1.5,0,2.8,1.2,2.8,2.8v28.2h0Z"/>
  <path d="M28.1,7h-16c-.5,0-.9.4-.9.9v2.9c0,.5.4.9.9.9h16c.5,0,.9-.4.9-.9v-2.9c0-.5-.4-.9-.9-.9ZM27.3,9.9h-14.2v-1.1h14.2s0,1.1,0,1.1Z"/>
  <path d="M28.1,13.2h-16c-.5,0-.9.4-.9.9v2.9c0,.5.4.9.9.9h16c.5,0,.9-.4.9-.9v-2.9c0-.5-.4-.9-.9-.9ZM27.3,16.1h-14.2v-1.1h14.2s0,1.1,0,1.1Z"/>
  <path d="M28.1,19.3h-16c-.5,0-.9.4-.9.9v2.9c0,.5.4.9.9.9h16c.5,0,.9-.4.9-.9v-2.9c0-.5-.4-.9-.9-.9ZM27.3,22.2h-14.2v-1.1h14.2s0,1.1,0,1.1Z"/>
  <path d="M28.1,25.5h-16c-.5,0-.9.4-.9.9v2.9c0,.5.4.9.9.9h16c.5,0,.9-.4.9-.9v-2.9c0-.5-.4-.9-.9-.9ZM27.3,28.4h-14.2v-1.1h14.2s0,1.1,0,1.1Z"/>
  <path d="M56.8,4.6c-7.7,0-14,6.3-14,14s6.3,14,14,14,14-6.3,14-14-6.3-14-14-14ZM58.5,6.5c1.4.2,2.8.6,4,1.3-1.6.8-3,2-3.9,3.5-.7,1.1-1,2.4-1.1,3.7-1.6-2.7-1.3-6.2,1-8.5ZM57.9,18.6c0,.6-.5,1.1-1.1,1.1s-1.1-.5-1.1-1.1.5-1.1,1.1-1.1,1.1.5,1.1,1.1ZM52.2,7.3c1.3-.5,2.7-.8,4.1-.9-1.8,2.6-2.1,6-.7,8.8-2.7-1.5-4.2-4.7-3.4-7.9ZM50.3,8.3c-.2,1.8.2,3.6,1.1,5.2.7,1.1,1.6,2.1,2.6,2.8-3.1,0-6-2-6.8-5.1.9-1.1,1.9-2.1,3.1-2.8ZM46,12.9c1.3,2.9,4.1,4.8,7.2,5-2.7,1.6-6.2,1.3-8.5-1,.2-1.4.6-2.8,1.3-4ZM44.6,19.1c1.5,1.1,3.3,1.6,5,1.6s2.6-.3,3.7-.9c-1.5,2.7-4.7,4.2-7.9,3.4-.5-1.3-.8-2.7-.9-4.1ZM46.5,25.1c.3,0,.5,0,.8,0,1.5,0,3-.4,4.3-1.2,1.1-.7,2.1-1.6,2.8-2.6,0,3.1-2,6-5.1,6.8-1.1-.9-2.1-1.9-2.8-3.1ZM55.1,30.7c-1.4-.2-2.8-.6-4-1.3,1.6-.8,3-2,3.9-3.5.7-1.1,1-2.4,1.1-3.7,1.6,2.7,1.3,6.2-1,8.5ZM61.4,29.9c-1.3.5-2.7.8-4.1.9,1.8-2.6,2.1-6,.7-8.8,2.7,1.5,4.2,4.7,3.4,7.9ZM63.3,28.9c.3-3.2-1.2-6.2-3.7-8,3.1,0,6,2,6.9,5.1-.9,1.1-1.9,2.1-3.1,2.8ZM67.6,24.3c-1.3-2.9-4.1-4.8-7.2-5,2.7-1.5,6.2-1.2,8.5,1-.2,1.4-.6,2.8-1.3,4ZM69,18.1c-1.5-1-3.2-1.6-5-1.6s-2.6.3-3.7.9c.6-1.1,1.5-2,2.6-2.7,1.6-.9,3.5-1.2,5.3-.7.5,1.3.8,2.7.9,4.1ZM62,13.2c-1.1.7-2.1,1.6-2.8,2.6,0-1.2.3-2.5.9-3.6.9-1.6,2.4-2.8,4.2-3.2,1.1.9,2.1,1.9,2.8,3.1-1.8-.2-3.6.2-5.2,1.1Z"/>
</svg>