<?xml version="1.0" encoding="UTF-8"?>
<svg id="Layer_1" xmlns="http://www.w3.org/2000/svg" xmlns:xlink="http://www.w3.org/1999/xlink" xmlns:serif="http://www.serif.com/" version="1.1" viewBox="0 0 656 120">
  <!-- Generator: Adobe Illustrator 29.2.1, SVG Export Plug-In . SVG Version: 2.1.0 Build 116)  -->
  <defs>
    <style>
      .st0 {
        fill: #fff;
        fill-rule: evenodd;
      }
    </style>
  </defs>
  <path class="st0" d="M385.5,22.8v78.6h22.2V22.8h-22.2ZM210.8,22.7v78.7h22.4v-61.1h17.5c5.7,0,9.7,1.4,12.5,4.4,3.5,3.7,4.9,9.8,4.9,20.8v35.9h21.7v-43.5c0-31.1-19.8-35.2-39.2-35.2h-39.9,0ZM421.3,22.8v78.6h36c19.2,0,25.5-3.2,32.2-10.3,4.8-5,7.9-16.1,7.9-28.1s-2.6-20.9-7.2-27.1c-8.2-11-20.1-13.1-37.8-13.1h-31.2.1ZM443.3,40h9.5c13.9,0,22.8,6.2,22.8,22.4s-9,22.4-22.8,22.4h-9.5v-44.7h0ZM353.5,22.8l-18.5,62.3-17.8-62.3h-24l25.4,78.6h32l25.6-78.6s-22.7,0-22.7,0ZM507.7,101.5h22.2V22.8h-22.2v78.6h0ZM570,22.9l-31,78.6h21.9l4.9-13.9h36.7l4.6,13.9h23.8l-31.2-78.6s-29.7,0-29.7,0ZM584.4,37.2l13.5,36.8h-27.3l13.9-36.8h-.1Z"/>
  <path class="st0" d="M67.6,35.9v-10.8c1,0,2.1-.1,3.2-.2,29.6-.9,49,25.4,49,25.4,0,0-21,29.1-43.5,29.1s-5.9-.5-8.7-1.4v-32.8c11.5,1.4,13.8,6.5,20.8,18l15.4-13s-11.2-14.8-30.2-14.8-4,0-6,.4h0ZM67.6.2v16.2c1.1,0,2.1-.2,3.2-.2,41.2-1.4,68,33.8,68,33.8,0,0-30.8,37.5-62.9,37.5s-5.7-.3-8.3-.7v10c2.2.3,4.5.4,6.9.4,29.9,0,51.5-15.2,72.4-33.3,3.5,2.8,17.7,9.5,20.6,12.5-19.9,16.6-66.2,30.1-92.5,30.1s-4.9,0-7.4-.4v14h113.5V.2h-113.5ZM67.6,78.1v8.5c-27.6-4.9-35.3-33.6-35.3-33.6,0,0,13.3-14.7,35.3-17.1v9.4h0c-11.6-1.4-20.6,9.4-20.6,9.4,0,0,5.1,18.2,20.6,23.4ZM18.5,51.8s16.4-24.2,49.1-26.7v-8.8C31.4,19.3,0,49.9,0,49.9c0,0,17.8,51.3,67.6,56v-9.3c-36.5-4.6-49.1-44.9-49.1-44.9h0Z"/>
</svg>