<?xml version="1.0" encoding="UTF-8"?>
<svg id="Layer_1" data-name="Layer 1" xmlns="http://www.w3.org/2000/svg" viewBox="0 0 256 274.99">
  <path d="M252.93,99.17c-2.73-10.92-8.19-20.02-15.47-28.2-5.46-6.37-11.83-11.83-18.2-18.2-6.37-5.46-10.92-11.83-13.65-19.11-1.82-3.64-3.64-7.28-6.37-10.92-4.55-6.37-11.83-10.92-19.11-14.56C168.32,1.82,155.58,0,141.93,0c-7.28,0-14.56.91-21.84,2.73-10.92,1.82-20.93,6.37-30.93,11.83-6.37,3.64-11.83,8.19-17.29,12.74-9.1,7.28-18.2,14.56-25.47,23.66-5.46,7.28-12.74,11.83-20.02,16.38-7.28,3.64-12.74,9.1-18.2,14.56-5.46,5.46-8.19,11.83-8.19,19.11,0,5.46.91,10.92,1.82,15.47,1.82,8.19,5.46,15.47,8.19,23.66,1.82,4.55,2.73,9.1,2.73,13.65s0,9.1-.91,13.65c-.91,10.01,0,20.93,1.82,30.93,1.82,9.1,7.28,16.38,16.38,20.02.91.91,2.73.91,3.64.91,1.82.91,1.82,1.82.91,2.73l-.91.91c-3.64,4.55-6.37,10.01-5.46,16.38.91,10.01,11.83,16.38,20.93,11.83,5.46-1.82,10.92,0,12.74,3.64.91.91.91,1.82,1.82,2.73,1.82,4.55,3.64,8.19,6.37,11.83,3.64,4.55,8.19,6.37,14.56,5.46,3.64-.91,7.28-1.82,10.92-3.64,6.37-3.64,11.83-8.19,18.2-13.65,1.82-1.82,3.64-1.82,6.37-1.82,3.64,0,7.28,1.82,10.92,4.55,5.46,3.64,10.92,6.37,17.29,8.19,11.83,3.64,22.75,4.55,34.57,1.82,11.83-2.73,21.84-8.19,30.93-14.56,6.37-4.55,10.92-9.1,14.56-15.47,3.64-6.37,5.46-12.74,7.28-20.02,2.73-10.01,3.64-20.02,3.64-30.93.91-9.1,1.82-17.29,4.55-25.47,1.82-6.37,4.55-12.74,7.28-19.11,1.82-5.46,3.64-10.92,4.55-17.29.91-10.01,0-19.11-2.73-28.2ZM135.56,7.28c2.73-.91,6.37-.91,9.1-.91h2.73c10.01,0,19.11,1.82,28.2,4.55,5.46,1.82,10.92,5.46,15.47,9.1s6.37,8.19,8.19,12.74v.91c0,.91,0,1.82-.91,1.82s-.91,0-1.82-.91c-3.64-3.64-6.37-7.28-10.01-10.01-5.46-4.55-10.92-8.19-18.2-10.01-10.01-2.73-19.11-4.55-29.11-6.37h-5.46q.91,0,1.82-.91c-.91,0,0,0,0,0ZM94.62,120.1c5.46,0,10.01,4.55,10.92,10.92,0,5.46-4.55,10.92-10.92,10.92-5.46,0-10.92-4.55-10.01-10.92,0-6.37,4.55-10.92,10.01-10.92ZM129.19,131.92h0v-30.93c0-20.93,18.2-28.2,32.75-22.75,2.73.91,5.46,2.73,8.19,4.55,1.82,1.82,1.82,4.55.91,7.28-1.82,1.82-3.64,2.73-6.37.91-1.82-.91-4.55-1.82-6.37-2.73-5.46-1.82-11.83,0-14.56,3.64-.91,1.82-1.82,3.64-1.82,6.37-.91,4.55,0,8.19,0,12.74v53.68c0,10.92-5.46,19.11-16.38,21.84-9.1,2.73-17.29,1.82-24.57-5.46-1.82-1.82-2.73-4.55-.91-6.37.91-1.82,3.64-2.73,6.37-1.82,2.73.91,5.46,2.73,8.19,3.64,9.1.91,15.47-2.73,15.47-12.74-.91-10.92-.91-20.93-.91-31.84ZM49.13,201.07h-.91c-.91-.91-1.82-.91-2.73-1.82-1.82-1.82-3.64-2.73-5.46-4.55-2.73-2.73-4.55-5.46-6.37-9.1-3.64-7.28-7.28-15.47-9.1-24.57-.91-4.55-1.82-9.1-1.82-13.65s-.91-9.1-1.82-12.74c-.91-6.37-1.82-13.65-1.82-20.02,0-8.19.91-15.47,3.64-22.75,2.73-8.19,6.37-15.47,12.74-21.84,5.46-5.46,10.01-10.92,15.47-16.38.91-.91,2.73-1.82,3.64-1.82,0,.91-.91,2.73-1.82,3.64-2.73,3.64-5.46,6.37-8.19,10.01-4.55,5.46-8.19,10.92-10.92,16.38-3.64,6.37-6.37,12.74-8.19,20.02-.91,3.64-1.82,7.28-1.82,10.92s-.91,7.28,0,11.83c0,5.46.91,10.01,1.82,14.56.91,5.46,1.82,10.01,1.82,15.47,0,6.37,1.82,12.74,3.64,19.11,0,1.82,1.82,2.73,1.82,4.55,2.73,5.46,5.46,10.01,10.01,13.65,1.82,1.82,3.64,4.55,5.46,6.37,0,0,0,.91.91.91v1.82h0ZM72.79,223.82c-3.64,0-6.37.91-10.01,1.82s-5.46-.91-6.37-4.55c0-.91-.91-2.73,0-3.64.91-2.73,2.73-2.73,4.55-.91,1.82,1.82,4.55,3.64,6.37,4.55.91.91,1.82.91,3.64.91.91,0,1.82.91,3.64,1.82h-1.82ZM141.93,242.92c-2.73,1.82-6.37,2.73-10.01,2.73-2.73,0-5.46-.91-8.19-.91h-1.82c-3.64.91-6.37.91-10.01,1.82-.91,0-2.73,0-3.64.91h-8.19c-3.64,0-6.37-1.82-9.1-4.55-.91-.91-1.82-2.73-2.73-4.55-.91-.91-.91-1.82-.91-3.64,0-.91.91-.91,1.82-.91h.91c4.55,2.73,10.01,3.64,14.56,4.55,6.37.91,12.74,1.82,19.11,1.82,3.64,0,6.37.91,10.01.91h7.28c1.82.91.91.91.91,1.82ZM175.59,220.18c-6.37,3.64-13.65,6.37-20.93,8.19-1.82,0-4.55.91-6.37.91s-4.55,0-6.37.91c-3.64.91-7.28,0-10.92,0-2.73,0-5.46-.91-8.19,0h-1.82c-3.64-.91-8.19-1.82-11.83-2.73-4.55-.91-9.1-2.73-12.74-4.55-3.64-.91-7.28-2.73-10.01-4.55-1.82-.91-3.64-2.73-5.46-3.64-5.46-5.46-10.92-10.01-15.47-14.56-3.64-4.55-7.28-8.19-10.92-12.74-3.64-5.46-6.37-10.92-9.1-17.29-.91-2.73-1.82-5.46-2.73-8.19-.91-2.73-1.82-4.55-1.82-7.28v-7.28c2.73,7.28,4.55,15.47,8.19,22.75,6.37,14.56,15.47,27.29,27.29,37.3,12.74,10.01,26.38,16.38,41.85,19.11,8.19,1.82,16.38,1.82,24.57,1.82,10.01-.91,20.02-2.73,29.11-7.28,1.82-.91,2.73-1.82,4.55-1.82q0,.91-.91.91ZM176.5,141.02c-5.46,0-10.01-4.55-10.01-10.92,0-5.46,4.55-10.92,10.92-10.92,5.46,0,10.01,4.55,10.01,10.92s-4.55,11.83-10.92,10.92ZM232.91,192.88c0,3.64-.91,7.28-1.82,10.92-.91,3.64-.91,8.19-2.73,11.83-.91,3.64-1.82,6.37-3.64,10.01-.91,2.73-2.73,5.46-5.46,7.28-2.73,1.82-4.55,3.64-8.19,4.55-3.64,1.82-6.37,2.73-10.92,2.73h-8.19q-1.82-.91-.91-2.73c.91-1.82,2.73-2.73,4.55-3.64,2.73-1.82,5.46-4.55,7.28-6.37,6.37-6.37,11.83-14.56,17.29-21.84,3.64-3.64,5.46-9.1,8.19-13.65.91-.91.91-1.82,1.82-2.73,2.73,1.82,2.73,2.73,2.73,3.64ZM96.44,40.03c15.47-7.28,31.84-10.01,48.22-8.19,3.64,0,7.28.91,10.01,2.73,5.46,1.82,10.92,3.64,16.38,5.46,5.46,1.82,10.92,4.55,15.47,7.28,6.37,3.64,11.83,8.19,17.29,13.65,7.28,7.28,13.65,14.56,18.2,23.66,2.73,5.46,4.55,10.92,6.37,16.38,1.82,6.37,3.64,13.65,3.64,20.02v8.19c0,3.64-.91,7.28-.91,10.92h0v-9.1c0-10.92-2.73-20.93-5.46-30.93-1.82-4.55-3.64-9.1-5.46-13.65-1.82-5.46-4.55-10.01-8.19-14.56-.91-.91-2.73-.91-3.64-1.82q-.91,0-1.82-.91c-4.55-4.55-10.01-9.1-15.47-13.65-7.28-5.46-15.47-10.01-23.66-12.74-3.64-1.82-7.28-2.73-10.92-3.64-8.19-1.82-16.38-3.64-24.57-2.73h-8.19c-2.73,0-5.46.91-9.1,1.82-5.46.91-10.92,2.73-15.47,4.55h-.91s-.91,0,0-.91c0,0,0-.91-.91-1.82M244.74,141.02c-.91-7.28,0-15.47,0-22.75-.91-7.28-1.82-14.56-3.64-21.84,4.55,6.37,5.46,14.56,6.37,21.84,0,7.28,0,15.47-2.73,22.75ZM250.2,145.57h0c0-2.73.91-6.37,1.82-10.01.91-3.64.91-8.19.91-11.83v-3.64c0-7.28-1.82-14.56-3.64-21.84-3.64-8.19-7.28-14.56-12.74-21.84-4.55-5.46-8.19-10.92-12.74-16.38q-.91-.91-1.82-1.82.91,0,.91.91c9.1,7.28,16.38,14.56,21.84,24.57,4.55,9.1,8.19,18.2,9.1,28.2,2.73,11.83.91,22.75-3.64,33.66Z" style="fill: #fff;"/>
</svg>